# xmcd
#
# Track frame offsets: 
#        150
#        24834
#        48815
#        65884
#        80554
#        106851
#        154411
#        170739
#        190820
#        213502
#        240043
#        266615
#
# Disc length: 3714 seconds
#
# Revision: 0
# Processed by: cddbd v1.5.2PL0 Copyright (c) Steve Scherf et al.
# Submitted via: ExactAudioCopy v1.0b3
#
DISCID=9b0e800c
DTITLE=Motor City Josh - Made In Detroit
DYEAR=2005
DGENRE=Blues
TTITLE0=Rollin' and Tumblin'
TTITLE1=Free Born Man
TTITLE2=You're Beautiful To Me
TTITLE3=Rocky Racoon
TTITLE4=Atl Family
TTITLE5=Cold, Cold Fellin'
TTITLE6=No More Love Songs
TTITLE7=Walkin' After Midnight
TTITLE8=Voodoo Chile'Slight Hillbilly
TTITLE9=Get Up Woman
TTITLE10=Honey Girl
TTITLE11=The Perfect Day
EXTD=
EXTT0=
EXTT1=
EXTT2=
EXTT3=
EXTT4=
EXTT5=
EXTT6=
EXTT7=
EXTT8=
EXTT9=
EXTT10=
EXTT11=
PLAYORDER=
